<?xml version="1.0" standalone="no"?>
<!DOCTYPE svg PUBLIC "-//W3C//DTD SVG 20010904//EN"
 "http://www.w3.org/TR/2001/REC-SVG-20010904/DTD/svg10.dtd">
<svg version="1.0" xmlns="http://www.w3.org/2000/svg"
 width="240.000000pt" height="240.000000pt" viewBox="0 0 240.000000 240.000000"
 preserveAspectRatio="xMidYMid meet">
<metadata>
Created by potrace 1.10, written by Peter Selinger 2001-2011
</metadata>
<g transform="translate(0.000000,240.000000) scale(0.100000,-0.100000)"
fill="#000000" stroke="none">
<path d="M674 2256 c-3 -7 -4 -33 -2 -57 l3 -44 80 -5 c85 -6 160 -25 186 -47
8 -7 20 -13 25 -13 14 0 68 -59 87 -95 47 -90 47 -88 47 -804 0 -619 -2 -681
-18 -731 -50 -155 -135 -216 -322 -229 l-85 -6 0 -55 0 -55 620 0 620 0 0 55
0 55 -85 6 c-187 13 -272 74 -322 229 -16 50 -18 112 -18 730 0 618 2 680 18
730 50 155 135 216 322 229 l85 6 0 55 0 55 -618 3 c-520 2 -618 0 -623 -12z"/>
<path d="M1910 1915 c-24 -13 -25 -19 -30 -117 l-5 -103 -85 -3 c-97 -3 -120
-16 -120 -69 0 -56 28 -75 113 -73 40 1 77 1 84 1 9 -1 13 -111 16 -448 4
-509 5 -510 77 -584 41 -41 52 -46 115 -57 55 -9 84 -8 133 2 76 15 93 34 89
96 -2 51 7 48 -122 34 -63 -7 -99 18 -115 77 -8 30 -15 659 -10 872 0 4 46 7
103 7 127 0 147 10 147 75 0 58 -14 65 -132 65 -51 0 -99 4 -107 9 -12 7 -14
30 -13 98 1 48 -1 93 -5 99 -24 34 -90 43 -133 19z"/>
<path d="M313 1679 c-95 -39 -162 -122 -181 -227 -13 -75 -1 -159 30 -210 22
-36 22 -37 -27 -117 -19 -32 -24 -54 -25 -108 0 -65 1 -68 39 -106 l39 -39
-30 -34 c-66 -72 -80 -105 -80 -184 0 -76 15 -111 67 -157 78 -68 306 -100
465 -64 159 36 235 103 271 239 27 101 -47 215 -167 257 -35 13 -96 20 -209
24 -88 3 -177 12 -199 19 -46 15 -61 46 -49 103 6 31 13 41 31 43 13 2 28 -1
35 -6 7 -5 40 -15 74 -22 71 -14 169 -2 238 31 51 25 65 36 100 83 64 84 82
203 44 285 -26 60 -20 71 39 71 26 0 53 5 60 12 16 16 15 93 0 106 -8 5 -121
12 -263 16 -239 5 -252 5 -302 -15z m255 -129 c47 -34 68 -70 78 -128 9 -54
-20 -132 -64 -174 -32 -32 -35 -33 -120 -33 -93 0 -116 9 -158 64 -27 37 -28
183 0 224 37 54 83 77 157 77 57 0 71 -4 107 -30z m61 -736 c56 -19 73 -34 88
-79 11 -33 -1 -86 -27 -121 -65 -89 -339 -101 -427 -18 -28 26 -33 38 -33 75
0 47 13 73 63 127 l31 32 127 0 c90 0 141 -5 178 -16z"/>
</g>
</svg>
