<svg xmlns="http://www.w3.org/2000/svg" width="448" height="116" viewBox="0 0 448 116">
  <g fill="none">
    <g fill="#FFF" transform="translate(129 35)">
      <path d="M15.241,18.87 C10.52,18.87 7.335,22.47 7.335,27.013 C7.335,31.556 10.58,35.215 15.183,35.215 C18.074,35.215 20.375,34.212 22.145,32.442 L25.804,37.753 C23.562,40.232 19.49,42.002 15.005,42.002 C6.627,42.002 0.136,35.275 0.136,27.073 C0.136,18.812 6.627,12.086 14.888,12.086 C19.726,12.086 23.562,13.738 26.039,16.335 L21.909,21.468 C20.139,19.755 18.015,18.87 15.241,18.87 Z"/>
      <polygon points="31.229 .578 38.428 .578 38.428 41.174 31.229 41.174"/>
      <path d="M44.976,27.072 C44.976,18.811 51.112,12.085 59.255,12.085 C67.339,12.085 73.475,18.339 73.475,26.482 C73.475,27.367 73.416,28.37 73.298,28.842 L52.351,28.842 C53.059,32.795 56.069,35.628 60.435,35.628 C63.267,35.628 65.687,34.389 67.339,32.678 L71.056,37.575 C68.932,40.053 64.919,42 60.14,42 C51.348,42 44.976,35.274 44.976,27.072 Z M52.469,24.299 L66.1,24.299 C65.274,20.286 62.737,18.221 59.373,18.221 C55.773,18.221 53.295,20.699 52.469,24.299 Z"/>
      <polygon points="104.864 12.911 94.656 41.175 85.333 41.175 75.065 12.911 82.972 12.911 90.17 34.743 97.487 12.911"/>
      <path d="M106.867 27.072C106.867 18.811 113.003 12.085 121.146 12.085 129.23 12.085 135.366 18.339 135.366 26.482 135.366 27.367 135.307 28.37 135.189 28.842L114.242 28.842C114.95 32.795 117.96 35.628 122.326 35.628 125.158 35.628 127.578 34.389 129.23 32.678L132.947 37.575C130.823 40.053 126.81 42 122.031 42 113.239 42 106.867 35.274 106.867 27.072zM114.36 24.299L127.991 24.299C127.165 20.286 124.628 18.221 121.264 18.221 117.665 18.221 115.187 20.699 114.36 24.299zM148.758 41.174L141.56 41.174 141.56 12.91 148.758 12.91 148.758 15.978C150.351 13.618 152.711 12.083 155.661 12.083 157.55 12.083 159.084 12.614 160.205 13.499L157.195 20.344C156.252 19.577 154.836 19.105 153.478 19.105 150.586 19.105 148.757 21.524 148.757 25.36L148.757 41.174 148.758 41.174zM191.415 18.87C186.694 18.87 183.508 22.47 183.508 27.013 183.508 31.556 186.753 35.215 191.356 35.215 194.248 35.215 196.548 34.212 198.319 32.442L201.977 37.753C199.735 40.232 195.664 42.002 191.179 42.002 182.8 42.002 176.31 35.275 176.31 27.073 176.31 18.812 182.8 12.086 191.061 12.086 195.9 12.086 199.735 13.738 202.213 16.335L198.082 21.468C196.312 19.755 194.188 18.87 191.415 18.87z"/>
      <polygon points="207.402 .578 214.6 .578 214.6 41.174 207.402 41.174"/>
      <path d="M221.148 27.072C221.148 18.811 227.639 12.085 235.84 12.085 244.042 12.085 250.592 18.812 250.592 27.072 250.592 35.274 244.042 42.001 235.84 42.001 227.64 42 221.148 35.274 221.148 27.072zM243.335 27.013C243.335 22.47 240.207 18.87 235.9 18.87 231.533 18.87 228.347 22.47 228.347 27.013 228.347 31.556 231.533 35.215 235.9 35.215 240.207 35.215 243.335 31.556 243.335 27.013zM263.924 28.193C263.924 32.323 266.343 35.097 269.943 35.097 273.542 35.097 275.962 32.324 275.962 28.193L275.962 12.911 283.16 12.911 283.16 28.724C283.16 36.631 277.909 41.882 269.943 41.882 261.977 41.882 256.725 36.631 256.725 28.724L256.725 12.911 263.924 12.911 263.924 28.193zM318.795.578L318.795 41.174 311.537 41.174 311.537 38.106C309.472 40.525 306.58 42.001 302.922 42.001 295.429 42.001 289.351 35.864 289.351 27.072 289.351 18.516 295.075 12.085 302.922 12.085 306.64 12.085 309.53 13.442 311.537 15.743L311.537.578 318.795.578zM311.537 27.013C311.537 22.47 308.409 18.87 304.102 18.87 299.735 18.87 296.549 22.47 296.549 27.013 296.549 31.556 299.735 35.215 304.102 35.215 308.409 35.215 311.537 31.556 311.537 27.013z"/>
    </g>
    <polygon fill="#AB2B4A" points="100.423 29.134 100.423 86.868 89.721 73.062 83.76 58.003 83.756 58.003 89.418 42.731"/>
    <polygon fill="#E87A68" points=".429 29.134 .429 86.868 9.889 73.481 17.092 58.003 17.096 58.003 9.773 43.319"/>
    <polygon fill="#D74D4E" points="83.756 58.003 52.241 60.003 17.092 58.003 31.76 29.134 50.426 .269 70.722 31.961"/>
    <polygon fill="#BD3246" points="100.423 29.134 83.756 58.003 50.426 .269"/>
    <polygon fill="#F19175" points="50.426 .269 17.092 58.003 .425 29.134"/>
    <polygon fill="#CF3942" points="83.756 58.003 72.365 82.931 50.426 115.737 27.849 81.83 17.092 58.003"/>
    <polygon fill="#E0625B" points="50.426 115.737 .425 86.868 17.092 58.003"/>
    <polygon fill="#9A244F" points="50.422 115.737 100.423 86.868 83.756 58.003"/>
  </g>
</svg>
