<?xml version="1.0" standalone="no"?>
<!DOCTYPE svg PUBLIC "-//W3C//DTD SVG 20010904//EN"
 "http://www.w3.org/TR/2001/REC-SVG-20010904/DTD/svg10.dtd">
<svg version="1.0" xmlns="http://www.w3.org/2000/svg"
 width="240.000000pt" height="240.000000pt" viewBox="0 0 240.000000 240.000000"
 preserveAspectRatio="xMidYMid meet">
<metadata>
Created by potrace 1.10, written by Peter Selinger 2001-2011
</metadata>
<g transform="translate(0.000000,240.000000) scale(0.100000,-0.100000)"
fill="#000000" stroke="none">
<path d="M669 2265 c0 -3 -1 -29 -1 -57 l-1 -53 94 -5 c52 -3 104 -11 116 -18
12 -7 31 -12 43 -12 28 0 150 -123 150 -152 1 -13 7 -34 15 -48 21 -37 21
-1423 0 -1460 -8 -14 -14 -35 -15 -48 0 -28 -121 -152 -149 -152 -10 0 -35 -7
-54 -15 -22 -9 -68 -15 -116 -15 l-79 0 -4 -56 c-1 -31 -1 -58 1 -60 2 -2 285
-4 628 -4 l623 0 0 60 0 60 -77 0 c-118 0 -194 29 -265 102 -35 35 -58 67 -58
81 -1 12 -7 33 -15 47 -12 21 -14 137 -15 720 0 817 -5 774 97 877 35 35 71
63 82 63 10 0 35 7 54 15 22 9 68 15 117 15 l80 0 0 60 0 60 -625 0 c-344 0
-625 -2 -626 -5z m791 -134 c5 -10 -1 -33 -19 -70 -69 -139 -66 -102 -66 -876
0 -773 -2 -742 65 -861 41 -72 39 -81 -14 -89 -69 -11 -293 -2 -307 12 -9 9
-4 24 20 64 18 28 42 81 54 118 22 65 22 74 22 761 0 693 0 695 -22 763 -13
38 -32 81 -43 97 -11 16 -23 42 -26 58 -6 28 -3 31 22 35 16 3 91 4 167 3 108
-1 140 -4 147 -15z"/>
<path d="M1895 1916 c-16 -12 -18 -23 -12 -112 4 -54 3 -105 -1 -111 -6 -10
-28 -10 -92 -3 -104 12 -120 2 -120 -70 0 -66 11 -72 121 -68 l92 3 -2 -421
c-2 -374 0 -428 15 -495 16 -63 25 -81 64 -119 40 -41 52 -47 117 -59 57 -10
84 -10 130 -1 81 17 93 30 93 102 0 57 0 58 -29 58 -16 0 -34 -7 -41 -15 -8
-10 -30 -15 -64 -15 -44 0 -56 4 -78 27 -14 16 -29 39 -33 53 -13 39 -22 874
-10 883 6 4 58 4 117 1 130 -8 138 -4 138 72 0 71 -10 76 -136 65 -115 -10
-138 -3 -130 37 3 15 8 60 12 100 5 64 4 75 -12 87 -24 18 -115 19 -139 1z"/>
<path d="M330 1685 c-14 -8 -32 -14 -40 -15 -21 0 -94 -71 -123 -118 -35 -56
-50 -163 -34 -233 8 -31 23 -67 35 -80 28 -29 27 -39 0 -69 -42 -45 -58 -87
-58 -153 0 -55 3 -66 29 -95 17 -17 37 -32 45 -32 27 0 17 -24 -24 -59 -66
-56 -83 -93 -83 -175 1 -127 60 -186 225 -225 110 -26 149 -25 328 5 49 8 139
53 177 89 33 31 76 124 80 175 9 94 -67 192 -178 231 -43 15 -82 19 -198 19
-176 0 -243 16 -262 63 -18 42 6 111 40 115 13 2 27 -1 30 -7 4 -6 34 -18 67
-27 50 -14 70 -14 137 -4 108 17 160 45 212 114 45 59 59 103 60 187 0 68 -3
79 -28 113 -32 41 -32 73 -2 67 11 -2 41 -5 67 -8 45 -5 48 -3 59 23 11 30 5
89 -11 99 -5 3 -125 7 -267 10 -212 4 -262 2 -283 -10z m231 -123 c110 -73
120 -222 22 -314 -64 -60 -185 -58 -255 5 -85 76 -68 245 30 308 38 25 167 26
203 1z m82 -751 c52 -22 87 -63 87 -101 0 -44 -26 -95 -62 -122 -95 -71 -327
-68 -405 6 -29 26 -33 36 -33 81 0 45 5 57 43 102 l42 52 142 0 c117 1 149 -2
186 -18z"/>
</g>
</svg>
