<?xml version="1.0" standalone="no"?>
<!DOCTYPE svg PUBLIC "-//W3C//DTD SVG 20010904//EN"
 "http://www.w3.org/TR/2001/REC-SVG-20010904/DTD/svg10.dtd">
<svg version="1.0" xmlns="http://www.w3.org/2000/svg"
 width="700.000000pt" height="700.000000pt" viewBox="0 0 700.000000 700.000000"
 preserveAspectRatio="xMidYMid meet">
<metadata>
Created by potrace 1.11, written by Peter Selinger 2001-2013
</metadata>
<g transform="translate(0.000000,700.000000) scale(0.100000,-0.100000)"
fill="#000000" stroke="none">
<path d="M2038 6612 l-88 -3 -1 -117 c0 -64 -2 -136 -3 -159 -1 -24 0 -43 3
-44 19 -3 80 -8 182 -13 224 -12 335 -28 436 -61 43 -14 96 -29 118 -35 70
-17 214 -142 359 -309 38 -44 86 -137 86 -166 0 -13 9 -44 19 -68 28 -64 33
-135 47 -617 11 -347 11 -2678 1 -3065 -14 -519 -18 -569 -47 -649 -11 -28
-22 -67 -25 -86 -11 -65 -79 -156 -221 -297 -104 -103 -182 -159 -234 -168
-19 -3 -78 -19 -130 -35 -121 -38 -187 -46 -401 -49 -96 -1 -175 -4 -177 -5
-10 -11 -19 -323 -9 -333 4 -3 826 -8 1827 -11 l1820 -4 0 176 0 176 -142 1
c-289 1 -430 25 -583 99 -186 89 -405 308 -440 439 -9 31 -24 79 -35 106 -10
28 -21 59 -24 70 -7 25 -16 248 -22 505 -5 274 -5 3111 0 3245 18 410 34 523
91 641 28 57 58 95 143 180 157 157 232 217 292 229 19 4 76 19 125 35 50 15
117 32 150 36 33 4 65 8 70 9 6 1 92 3 193 3 l182 2 0 176 0 176 -1737 -4
c-956 -2 -1777 -4 -1825 -6z m2167 -373 c44 -12 50 -17 53 -44 5 -42 -12 -93
-79 -233 -101 -209 -110 -238 -134 -422 -27 -213 -30 -419 -30 -2070 0 -1422
5 -1932 19 -2007 2 -10 7 -49 11 -88 14 -145 41 -217 179 -479 68 -130 71
-161 16 -188 -56 -27 -129 -32 -395 -32 -313 1 -489 13 -562 38 -49 16 -39 52
73 255 76 140 146 327 159 426 3 22 7 56 10 75 12 92 17 726 17 2015 0 1346
-5 1896 -17 1995 -23 177 -78 334 -183 522 -40 72 -72 155 -72 189 0 35 27 54
87 60 32 3 225 5 428 4 274 -2 383 -6 420 -16z"/>
<path d="M5619 5619 c-108 -16 -137 -55 -133 -174 9 -256 12 -476 7 -494 -9
-35 -89 -44 -227 -26 -22 3 -95 8 -161 11 -104 5 -125 3 -154 -13 -65 -34 -76
-61 -76 -186 0 -132 11 -163 70 -192 37 -18 59 -19 270 -17 127 1 240 4 253 7
l22 4 -2 -1117 c-2 -994 2 -1329 17 -1412 2 -14 7 -43 10 -65 10 -74 47 -199
77 -264 33 -69 150 -201 225 -253 40 -27 104 -55 148 -64 11 -2 34 -7 50 -11
17 -3 39 -8 50 -9 11 -1 36 -5 55 -9 144 -29 421 11 512 74 52 36 69 85 75
212 6 125 -6 176 -43 185 -42 11 -111 -6 -153 -36 -53 -39 -102 -49 -219 -45
-121 3 -160 22 -228 110 -72 92 -79 122 -89 385 -20 516 -29 2290 -12 2307 9
8 186 9 457 3 213 -5 251 7 277 85 14 43 10 234 -7 267 -28 58 -109 71 -340
53 -63 -5 -170 -9 -237 -10 -109 0 -125 2 -150 21 -36 27 -37 56 -7 279 17
133 22 262 12 302 -7 28 -55 77 -76 79 -4 0 -22 4 -40 8 -46 11 -177 14 -233
5z"/>
<path d="M1064 4939 c-33 -4 -87 -18 -120 -32 -32 -13 -80 -31 -105 -41 -105
-38 -324 -266 -380 -395 -11 -26 -24 -55 -29 -66 -11 -26 -37 -135 -49 -210
-10 -63 -8 -279 3 -330 4 -16 12 -46 18 -65 7 -19 12 -37 13 -40 3 -22 60
-125 94 -169 22 -30 41 -65 41 -77 0 -21 -45 -88 -92 -138 -31 -33 -85 -127
-102 -176 -24 -73 -34 -158 -32 -275 2 -100 5 -116 31 -163 39 -73 130 -153
189 -168 63 -15 41 -59 -94 -185 -186 -174 -226 -266 -222 -516 4 -290 128
-456 422 -565 83 -31 289 -87 375 -102 129 -23 291 -26 439 -9 114 14 120 15
196 27 25 4 59 10 75 12 168 25 228 44 380 121 160 81 249 152 310 248 125
194 184 413 153 560 -43 206 -233 416 -458 507 -149 60 -246 74 -550 77 -443
5 -602 21 -721 72 -57 25 -112 81 -129 134 -26 80 4 215 63 279 39 42 102 47
153 12 48 -32 198 -82 294 -97 65 -10 210 -7 270 6 14 3 43 8 65 11 140 20
305 81 399 148 137 98 267 275 315 429 27 89 33 131 36 283 4 202 -1 223 -106
387 -37 57 -48 117 -26 139 13 13 28 13 119 1 143 -18 230 -22 251 -11 34 18
60 96 59 176 -1 70 -13 134 -30 160 -14 21 -48 24 -447 37 -261 10 -1010 12
-1071 4z m456 -344 c117 -23 217 -100 294 -225 137 -222 98 -513 -95 -708
-160 -163 -436 -194 -659 -76 -80 42 -94 54 -152 126 -48 58 -82 136 -99 223
-10 53 -13 172 -4 215 2 14 7 39 10 55 19 95 90 223 162 293 66 63 118 86 218
98 28 4 51 8 53 9 6 6 237 -3 272 -10z m235 -2194 c130 -31 199 -67 275 -141
31 -30 65 -73 75 -95 38 -80 25 -191 -36 -305 -35 -65 -58 -93 -119 -141 -248
-197 -893 -204 -1147 -14 -110 83 -139 149 -131 296 6 101 32 153 153 301 l95
117 392 -3 c260 -2 410 -7 443 -15z"/>
</g>
</svg>
